<svg xmlns="http://www.w3.org/2000/svg" viewBox="0 0 156.55 85.45"><defs><style>.cls-1{fill:#282828;}</style></defs><g id="Capa_2" data-name="Capa 2"><g id="Capa_1-2" data-name="Capa 1"><path class="cls-1" d="M60.74,41.17c-.7.69-4.7,4.94-4.7,4.94s-.37,2.15.37,2.6a2.52,2.52,0,0,0,2.22.21c.53-.27,4.68-5.13,4.68-5.13A4.27,4.27,0,0,0,62.84,41s-1.4-.53-2.1.17"/><path class="cls-1" d="M87.26,48.6a1.44,1.44,0,0,0,.58.64,1,1,0,0,0,.7,0,2.33,2.33,0,0,0,.65-.28,4.49,4.49,0,0,0,1.48-1.14A1.88,1.88,0,0,0,91,46.09a3.72,3.72,0,0,1-1,.73L89.48,45A8.34,8.34,0,0,0,89,43.49c0-.09-.1-.18-.15-.28a.83.83,0,0,1-.31-.33l-.1-.21a2.32,2.32,0,0,0-.44-.38c0-.25-.1-.5-.16-.74a2.53,2.53,0,0,0-.83-.83,4.46,4.46,0,0,0-2.91-.06,13,13,0,0,0-3.31,1.13c-.72.38-1.39.87-2.12,1.22-.25.18-.5.36-.74.55a3.39,3.39,0,0,0-1.12,3.11,3,3,0,0,0,1.83,2.11,5.62,5.62,0,0,0,2.82.3,11.37,11.37,0,0,0,5.29-2,5.53,5.53,0,0,0,.54,1.49M84.43,46a4.36,4.36,0,0,1-2.79.54,1,1,0,0,1-.72-.33c-.16-.25.1-.45.29-.68A5.54,5.54,0,0,1,86,43.65,3.19,3.19,0,0,1,84.43,46"/><path class="cls-1" d="M94.27,49a2,2,0,0,0,1.46-.15A5.59,5.59,0,0,0,97,47.93l.67-.55a11.26,11.26,0,0,1,3.2-1.73,1.36,1.36,0,0,1,1-.11,1,1,0,0,1,.53.68c.09.29.11.59.18.88a2.68,2.68,0,0,0,3.27,2,3.36,3.36,0,0,0,2.31-2,2.64,2.64,0,0,1-2.92-1c-.44-.63-.57-1.43-1-2.08a2.74,2.74,0,0,0-3.39-1c-.86.37-1.54,1.18-2.47,1.27a.33.33,0,0,1-.32-.23,1.4,1.4,0,0,1,0-.41A3.38,3.38,0,0,0,97,41.14a2.58,2.58,0,0,0-1.24,1A8,8,0,0,0,95,43.52l-1.2,2.63a3,3,0,0,0-.4,1.66A1.46,1.46,0,0,0,94.27,49"/><path class="cls-1" d="M117.27,40.69A8.28,8.28,0,0,0,111.33,44a3.72,3.72,0,0,0-.73,3.29A3.09,3.09,0,0,0,113,49.16a7.38,7.38,0,0,0,3.09-.29,4.59,4.59,0,0,1-.17.48c-2,5.08-4.61,10-8.37,14s-8.57,7.26-14.09,7.2c-2,0-4-.21-5.16-1.77S87.16,65,87.67,63a1.52,1.52,0,0,1,.43-.69,6.19,6.19,0,0,0-2.44,2.18A5.26,5.26,0,0,0,85.32,68a6.46,6.46,0,0,0,3.25,4.27,6.72,6.72,0,0,0,2.51.84A17.85,17.85,0,0,0,96.49,73c7.29-1.38,12.77-6.31,16.78-12.51a90.8,90.8,0,0,0,6.53-13,7.53,7.53,0,0,0,.88-4.37,3.12,3.12,0,0,0-3.41-2.41m-.14,5.64c-1,.48-2,.45-2.28-.08s.36-1.34,1.37-1.83,2-.44,2.29.08-.36,1.35-1.38,1.83"/><path class="cls-1" d="M156.4,45.58a2,2,0,0,0-1.83-1.25,1.72,1.72,0,0,0-1.67,1.28,19.51,19.51,0,0,1-9.23-.61,8.37,8.37,0,0,0,2.18-4.84,3.46,3.46,0,0,0-.3-1.65,3.88,3.88,0,0,0-2.12-1.87,5,5,0,0,0-1.76-.53,2,2,0,0,0-1.73.51,28.89,28.89,0,0,1-7.61,6.68,3.53,3.53,0,0,0-1.4-2.19,4.28,4.28,0,0,0-2.37-.68l-.42,0a15.88,15.88,0,0,0-3.56,1.12c-2.36,1.13-3.51,4.72-1.83,6.44s5.47,1.32,7.79-.33h0s0,0,0,0a4.86,4.86,0,0,0,.82-.74c1.07-.77,2.41-1.22,3.49-2,.91-.66,6.34-7,7.79-6,.63.55.45.73.25,1.37a7.4,7.4,0,0,1-2.28,3.49,7.54,7.54,0,0,0-3,0,6.39,6.39,0,0,0-1.52.95,13.83,13.83,0,0,0-1.71,1.54,3.67,3.67,0,0,0-.42.61,4.91,4.91,0,0,0,0,1.08,2.17,2.17,0,0,0,.81,1.57,2.92,2.92,0,0,0,2.49.16,11.67,11.67,0,0,0,4.44-2.28A56.26,56.26,0,0,0,154,48.77a2.62,2.62,0,0,0,2.05-1,2.31,2.31,0,0,0,.32-2.22M125.79,45c-.34-.5.21-1.48,1.24-2.18s2.14-.86,2.48-.36-.21,1.48-1.24,2.18-2.13.86-2.48.36"/><path class="cls-1" d="M24.92,44c5.49-3.67,8.32-5.89,11.61-9.56S47.14,21.71,47.14,21.71,15.41,71.65,59.66,31.17L45.3,46.42s-.81,1.83-.13,2.26a3.13,3.13,0,0,0,1.8.26A192.65,192.65,0,0,0,61,34.35C66,28.26,84.4,1.94,84.4,1.94S85,.53,84.23.11s-1.72.44-1.72.44A272.53,272.53,0,0,1,57,30.47C43.44,43.85,39.64,43.36,39.64,43.36s4-11.68,9.75-20S59.61,7.08,59.61,7.08a1.61,1.61,0,0,0-.73-1.9,1.55,1.55,0,0,0-2,.54s-18.11,25-23,29.26S19.7,46.68,8.64,47.34c0,0-3-2.64-2.37.95S19.43,47.62,24.92,44"/><path class="cls-1" d="M71.35,41.07s-2.68,1.27-13.74,15.52-19.14,13.75-37,7.64S1.25,60.38,0,62.2c0,0,6-1,24.39,6.24s28.38-1,32.78-6.37,11.44-14.2,13.09-15.41L74,43.93s1.32-1.68.45-2.86-3.07,0-3.07,0"/><path class="cls-1" d="M65.2,36.93a2.43,2.43,0,0,0-.65.25,1.75,1.75,0,0,0-.61.54,1.49,1.49,0,0,0-.15,1.36,1.75,1.75,0,0,0,.43.67,2.09,2.09,0,0,0,.73.4,2.17,2.17,0,0,0,1.5-.18,1.46,1.46,0,0,0,.63-.55,1.88,1.88,0,0,0,.12-.3.83.83,0,0,0,.36-.67,1.61,1.61,0,0,0-.8-1.36,2.07,2.07,0,0,0-1.56-.16"/><path class="cls-1" d="M38.65,85.37v-.1a.59.59,0,0,0,.3,0,.16.16,0,0,0,.07-.13,1.19,1.19,0,0,0-.1-.38l-.22-.51H37.27l-.25.62A1,1,0,0,0,37,85c0,.17.12.23.38.23v.1H36.27v-.1c.32,0,.37-.15.69-.91l1.12-2.65h.11l1.33,3.06c.15.35.23.46.51.5v.1ZM38,82.48,37.37,84h1.25Z"/><path class="cls-1" d="M44.45,85.37,43.16,83.7h-.31v1.05c0,.41.07.48.49.51v.1h-1.5v-.1c.41,0,.46-.1.46-.57V82.38c0-.41,0-.47-.46-.5v-.11h1.48a1.79,1.79,0,0,1,1.13.32.88.88,0,0,1,.27.65c0,.48-.31.79-1,.9L44.82,85a.62.62,0,0,0,.51.26v.1Zm-1.6-1.86a1.86,1.86,0,0,0,1-.19.7.7,0,0,0,.3-.62c0-.49-.32-.73-1-.73-.18,0-.28,0-.28.23Z"/><path class="cls-1" d="M50,82.7c-.12-.6-.26-.7-.84-.7H48.8v2.77c0,.41.08.47.53.5v.1H47.74v-.1c.45,0,.51-.09.51-.57V82h-.33c-.57,0-.72.1-.83.7H47l0-.93h3l0,.93Z"/><path class="cls-1" d="M54.82,85.37H51.89v-.1c.42,0,.47-.1.47-.52V82.38c0-.4-.07-.48-.47-.5v-.11h2.88l0,.78h-.14c-.08-.49-.2-.57-.83-.57H53.1c-.15,0-.19,0-.19.19v1.2h.82c.47,0,.55-.09.62-.52h.12v1.27h-.12c-.07-.46-.15-.53-.62-.53h-.82v1.32c0,.23.15.26.55.26h.2c.78,0,1-.14,1.25-.72h.16Z"/><path class="cls-1" d="M63.58,81.88c-.33,0-.45.14-.75.6L62,83.72v1c0,.42.1.47.56.5v.1H60.92v-.1c.48,0,.55-.09.55-.57v-.93l-.71-1c-.5-.73-.62-.84-.88-.85v-.11h1.51v.11h-.13c-.17,0-.25.06-.25.14a.51.51,0,0,0,.09.26l.8,1.2.78-1.21a.4.4,0,0,0,.08-.23c0-.12-.09-.16-.37-.16v-.11h1.19Z"/><path class="cls-1" d="M71.29,85.37H68.36v-.1c.42,0,.47-.1.47-.52V82.38c0-.4-.06-.48-.47-.5v-.11h2.88l0,.78h-.14c-.08-.49-.2-.57-.83-.57h-.71c-.16,0-.19,0-.19.19v1.2h.82c.46,0,.54-.09.61-.52H71v1.27h-.13c-.07-.46-.15-.53-.61-.53h-.82v1.32c0,.23.14.26.54.26h.2c.78,0,1-.14,1.25-.72h.16Z"/><path class="cls-1" d="M75.66,82.85a1.43,1.43,0,0,0-.23-.51,1,1,0,0,0-.78-.42.51.51,0,0,0-.55.52c0,.36.4.59,1,.92s.84.66.84,1.07a1,1,0,0,1-1.11,1,1.56,1.56,0,0,1-.64-.13.74.74,0,0,0-.25-.06.16.16,0,0,0-.15.18h-.12l-.16-1.15h.12c.25.66.6,1,1.12,1a.6.6,0,0,0,.64-.61.61.61,0,0,0-.15-.43,4.19,4.19,0,0,0-.92-.63,1,1,0,0,1-.66-.93.9.9,0,0,1,1-1,1.27,1.27,0,0,1,.57.12.64.64,0,0,0,.24.06c.09,0,.15-.06.17-.18h.11l.12,1.15Z"/><path class="cls-1" d="M79.39,81.77a1.81,1.81,0,0,1,1.17.34.84.84,0,0,1,.28.65.92.92,0,0,1-.31.71,1.45,1.45,0,0,1-1.17.33H79v1c0,.41.07.48.51.51v.1H78v-.1c.42,0,.45-.1.45-.56V82.38c0-.41-.05-.47-.45-.5v-.11Zm-.4,1.8.33,0c.6,0,.92-.31.92-.8S79.92,82,79.18,82c-.16,0-.19,0-.19.2Z"/><path class="cls-1" d="M82.65,85.37v-.1c.45,0,.52-.09.52-.51V82.38c0-.43-.06-.48-.52-.5v-.11h1.61v.11c-.46,0-.53.08-.53.5v2.38c0,.41.08.49.53.51v.1Z"/><path class="cls-1" d="M88.69,85.37,87.4,83.7h-.3v1.05c0,.41.06.48.48.51v.1h-1.5v-.1c.41,0,.46-.1.46-.57V82.38c0-.41,0-.47-.46-.5v-.11h1.48a1.77,1.77,0,0,1,1.13.32.88.88,0,0,1,.27.65c0,.48-.3.79-1,.9L89.06,85a.63.63,0,0,0,.51.26v.1ZM87.1,83.51a1.85,1.85,0,0,0,1-.19.71.71,0,0,0,.31-.62c0-.49-.32-.73-1-.73-.18,0-.27,0-.27.23Z"/><path class="cls-1" d="M91.34,85.37v-.1c.46,0,.53-.09.53-.51V82.38c0-.43-.07-.48-.53-.5v-.11H93v.11c-.45,0-.53.08-.53.5v2.38c0,.41.09.49.53.51v.1Z"/><path class="cls-1" d="M97.78,82.7c-.12-.6-.27-.7-.84-.7h-.32v2.77c0,.41.07.47.52.5v.1H95.55v-.1c.45,0,.51-.09.51-.57V82h-.32c-.58,0-.72.1-.83.7h-.13l0-.93h3.06l0,.93Z"/><path class="cls-1" d="M103.47,81.88c-.46,0-.52.17-.52.69V84a1.45,1.45,0,0,1-.29,1.1,1.41,1.41,0,0,1-1.1.4,1.55,1.55,0,0,1-.92-.25A1.38,1.38,0,0,1,100.2,84V82.33c0-.36-.06-.42-.49-.45v-.11h1.54v.11c-.44,0-.5.1-.5.51v1.69c0,.43,0,.67.24.88a1,1,0,0,0,.7.25,1.07,1.07,0,0,0,.82-.32,1.23,1.23,0,0,0,.21-.88V82.58c0-.56-.07-.68-.52-.7v-.11h1.27Z"/><path class="cls-1" d="M107.41,85.37v-.1a.56.56,0,0,0,.3,0,.17.17,0,0,0,.08-.13,1,1,0,0,0-.11-.38l-.22-.51H106l-.25.62a.63.63,0,0,0-.05.22c0,.17.12.23.38.23v.1H105v-.1c.31,0,.36-.15.68-.91l1.12-2.65H107l1.34,3.06c.15.35.22.46.51.5v.1Zm-.66-2.89L106.13,84h1.25Z"/><path class="cls-1" d="M113.5,85.37h-2.92v-.1c.4,0,.47-.11.47-.53V82.4c0-.41,0-.49-.47-.52v-.11h1.53v.11c-.44,0-.51.09-.51.51v2.52c0,.21.09.25.49.25h.38a1.1,1.1,0,0,0,.92-.33,2.72,2.72,0,0,0,.23-.41h.14Z"/><path class="cls-1" d="M115.55,85.37v-.1c.46,0,.53-.09.53-.51V82.38c0-.43-.07-.48-.53-.5v-.11h1.62v.11c-.46,0-.54.08-.54.5v2.38c0,.41.09.49.54.51v.1Z"/><path class="cls-1" d="M120.45,81.77a2.46,2.46,0,0,1,1.63.5,1.59,1.59,0,0,1,.54,1.28,1.66,1.66,0,0,1-.74,1.47,2.55,2.55,0,0,1-1.37.35H119v-.1c.43,0,.48-.1.48-.53V82.38c0-.43-.06-.48-.48-.5v-.11ZM120,84.91c0,.19,0,.26.27.26a2,2,0,0,0,1.18-.28,1.45,1.45,0,0,0,.56-1.3,1.51,1.51,0,0,0-.51-1.24A1.65,1.65,0,0,0,120.3,82c-.2,0-.29,0-.29.23Z"/><path class="cls-1" d="M126.69,85.37v-.1a.59.59,0,0,0,.3,0,.16.16,0,0,0,.07-.13,1.19,1.19,0,0,0-.1-.38l-.22-.51h-1.43l-.25.62a.63.63,0,0,0,0,.22c0,.17.12.23.38.23v.1h-1.08v-.1c.32,0,.37-.15.69-.91l1.12-2.65h.1l1.34,3.06c.15.35.23.46.51.5v.1ZM126,82.48,125.4,84h1.26Z"/><path class="cls-1" d="M131.34,81.77a2.46,2.46,0,0,1,1.63.5,1.59,1.59,0,0,1,.54,1.28,1.66,1.66,0,0,1-.74,1.47,2.55,2.55,0,0,1-1.37.35h-1.53v-.1c.43,0,.48-.1.48-.53V82.38c0-.43-.06-.48-.48-.5v-.11Zm-.43,3.14c0,.19,0,.26.26.26a1.93,1.93,0,0,0,1.18-.28,1.45,1.45,0,0,0,.56-1.3,1.51,1.51,0,0,0-.51-1.24,1.65,1.65,0,0,0-1.21-.38c-.2,0-.28,0-.28.23Z"/></g></g></svg>